<?xml version="1.0"?><svg xmlns="http://www.w3.org/2000/svg" id="Layer_1" data-name="Layer 1" viewBox="0 0 128 128"><defs><style>
      .cls-1 {
        stroke-width: 0px;
      }
    </style></defs><path id="Vector" class="cls-1" d="m80.75,69.16c-3.67,0-6.97,1.66-9.22,4.26l-5.78-4.16c.61-1.71.96-3.56.96-5.49s-.34-3.71-.93-5.4l5.77-4.12c2.25,2.6,5.54,4.24,9.2,4.24,6.79,0,12.31-5.61,12.31-12.5s-5.52-12.51-12.31-12.51-12.3,5.61-12.3,12.51c0,1.23.19,2.42.51,3.55l-5.77,4.12c-2.41-3.04-5.88-5.17-9.84-5.81v-7.07c5.58-1.19,9.77-6.23,9.77-12.24,0-6.9-5.51-12.5-12.3-12.5s-12.3,5.6-12.3,12.5c0,5.93,4.09,10.9,9.55,12.18v7.16c-7.45,1.33-13.14,7.94-13.14,15.89s5.75,14.63,13.25,15.91v7.56c-5.52,1.24-9.66,6.24-9.66,12.21,0,6.9,5.52,12.5,12.3,12.5s12.3-5.6,12.3-12.5c0-5.97-4.14-10.97-9.66-12.21v-7.56c3.8-.65,7.24-2.68,9.68-5.72l5.82,4.19c-.33,1.12-.51,2.29-.51,3.52,0,6.89,5.52,12.5,12.3,12.5s12.31-5.61,12.31-12.5-5.52-12.51-12.31-12.51Zm0-29.23c3.29,0,5.97,2.72,5.97,6.06s-2.68,6.06-5.97,6.06-5.96-2.72-5.96-6.06,2.67-6.06,5.96-6.06Zm-35.89-11.39c0-3.34,2.67-6.06,5.96-6.06s5.97,2.72,5.97,6.06-2.68,6.06-5.97,6.06-5.96-2.72-5.96-6.06Zm11.93,70.91c0,3.34-2.68,6.06-5.97,6.06s-5.96-2.72-5.96-6.06,2.67-6.06,5.96-6.06,5.97,2.72,5.97,6.06Zm-5.97-27.22c-4.59,0-8.32-3.8-8.32-8.46s3.73-8.45,8.32-8.45,8.32,3.79,8.32,8.45-3.73,8.46-8.32,8.46Zm29.93,15.5c-3.29,0-5.96-2.72-5.96-6.06s2.67-6.07,5.96-6.07,5.97,2.72,5.97,6.07-2.68,6.06-5.97,6.06Z"/></svg>