<?xml version="1.0"?><svg data-name="Layer 1" id="Layer_1" viewBox="0 0 24 24" xmlns="http://www.w3.org/2000/svg"><defs><style>.cls-1,.cls-2{fill:none;stroke:#000;stroke-linecap:round;stroke-linejoin:round;}</style></defs><title/><path class="cls-1" d="M12.17,12.21,13,13.87a.18.18,0,0,0,.14.11l1.84.27a.19.19,0,0,1,.11.33l-1.33,1.29a.19.19,0,0,0-.06.17L14,17.87a.19.19,0,0,1-.28.21l-1.64-.87a.19.19,0,0,0-.18,0l-1.64.87a.19.19,0,0,1-.28-.21L10.3,16a.19.19,0,0,0-.06-.17L8.91,14.58A.19.19,0,0,1,9,14.25L10.86,14a.18.18,0,0,0,.14-.11l.83-1.66A.18.18,0,0,1,12.17,12.21Z"/><polyline class="cls-2" points="6.08 10.74 4.5 6.51 7.41 3 9.42 8.43"/><polyline class="cls-2" points="17.92 10.74 19.5 6.51 16.59 3 14.58 8.43"/><line class="cls-2" x1="7.41" x2="16.36" y1="3" y2="3"/><line class="cls-2" x1="8.71" x2="15.29" y1="6.51" y2="6.51"/><circle class="cls-2" cx="12" cy="15.4" r="5.75"/><line class="cls-2" x1="4" x2="1.5" y1="15.4" y2="15.4"/><line class="cls-2" x1="22.5" x2="20" y1="15.4" y2="15.4"/><line class="cls-2" x1="4.48" x2="2.13" y1="18.14" y2="18.99"/><line class="cls-2" x1="21.87" x2="19.52" y1="11.81" y2="12.67"/><line class="cls-2" x1="19.52" x2="21.87" y1="18.14" y2="18.99"/><line class="cls-2" x1="2.13" x2="4.48" y1="11.81" y2="12.67"/></svg>