<?xml version="1.0"?><svg viewBox="0 0 64 64" xmlns="http://www.w3.org/2000/svg"><title/><g data-name="19-ai" id="_19-ai"><path d="M54.82,38.569a5.049,5.049,0,0,0-3.877-.49l-3.068-5.562A1,1,0,0,0,47,32H43V29h2a1,1,0,0,0,0-2H43V25h3a1,1,0,0,0,1-1V21.945a4.6,4.6,0,0,0,.5.055,4.491,4.491,0,0,0,2.868-7.954l4.639-4.639a1,1,0,0,0-1.414-1.414L48.47,13.116A4.432,4.432,0,0,0,47.5,13,4.5,4.5,0,0,0,45,21.239V23H43a4,4,0,0,0-3-3.858v-2.8l4.524-5.818a4.487,4.487,0,0,0,5.193-7.163,4.439,4.439,0,0,0-2.49-1.3c-.043-.011-.087-.02-.131-.027A4.442,4.442,0,0,0,46.5,2a4.494,4.494,0,0,0-3.537,7.274L38.21,15.386A1,1,0,0,0,38,16v3H35V14.9a5,5,0,0,0,0-9.8V1a.986.986,0,0,0-1-.984A1.012,1.012,0,0,0,33,1.03V5.1a5,5,0,0,0,0,9.8V19H30V17a1,1,0,0,0-.12-.475L25.66,8.69A4.459,4.459,0,0,0,27,5.5a4.509,4.509,0,0,0-2.358-3.956,4.476,4.476,0,0,0-6.375,2.488c-6.1,4.138-6.449,10.568-6.692,15.289a18.462,18.462,0,0,1-.524,4.364c-.957,2.879-4.614,7.63-6.141,9.539A4.175,4.175,0,0,0,8.17,40h2.79c-.034,2.326.21,7.82,3.031,10.866A6.557,6.557,0,0,0,19,53a45.338,45.338,0,0,0,6.741-.751L23.708,62.811A1,1,0,0,0,24.69,64H50.78a1,1,0,0,0,.982-1.189l-.28-1.45A31.1,31.1,0,0,1,51.89,47.85c.133.011.266.03.4.03a5,5,0,0,0,2.53-9.311ZM47.5,15a2.328,2.328,0,0,1,.879.165h.006l.018.008A2.5,2.5,0,0,1,47.5,20a2.409,2.409,0,0,1-1.071-.243A2.5,2.5,0,0,1,47.5,15Zm-1-11c.078,0,.153,0,.227.01a.91.91,0,0,0,.118.022,2.417,2.417,0,0,1,1.435.722l.007.007A2.466,2.466,0,0,1,49,6.5,2.5,2.5,0,0,1,46.5,9,2.51,2.51,0,0,1,44,6.5,2.5,2.5,0,0,1,46.5,4ZM31,10a3,3,0,1,1,3,3A3,3,0,0,1,31,10ZM41,23V33a2,2,0,0,1-2,2H29a2,2,0,0,1-2-2V23a2,2,0,0,1,2-2H39A2,2,0,0,1,41,23ZM22.5,3a2.457,2.457,0,0,1,1.178.3l0,0a2.495,2.495,0,0,1,.154,4.31A2.4,2.4,0,0,1,22.5,8,2.5,2.5,0,0,1,20,5.5a2.37,2.37,0,0,1,.082-.6A2.476,2.476,0,0,1,22.5,3Zm3.4,59,2.081-10.811A1,1,0,0,0,26.8,50.02,53.325,53.325,0,0,1,19,51a4.573,4.573,0,0,1-3.54-1.49C12.487,46.3,12.992,39.148,13,39.076A1,1,0,0,0,12,38H8.17a2.174,2.174,0,0,1-1.7-3.525C8.452,32,11.929,27.387,12.948,24.316a19.476,19.476,0,0,0,.624-4.892c.214-4.153.489-9.216,4.59-12.792a4.46,4.46,0,0,0,5.8,3.118L28,17.252v1.89A4,4,0,0,0,25,23H21a1,1,0,0,0,0,2h4v2H19a1,1,0,0,0,0,2h6v2H21a1,1,0,0,0,0,2h4a4,4,0,0,0,4,4v3a1,1,0,0,0,2,0V37h2v5a1,1,0,0,0,2,0V37h2v3a1,1,0,0,0,2,0V37a4,4,0,0,0,3.858-3H46.41l2.752,4.99a4.968,4.968,0,0,0-1.872,3.89,5.026,5.026,0,0,0,2.679,4.413,33.1,33.1,0,0,0-.451,14.446l.05.261ZM52.29,45.88a2.869,2.869,0,0,1-.855-.129,3,3,0,0,1-.508-5.547,3.07,3.07,0,0,1,1.363-.324,2.958,2.958,0,0,1,1.515.413A3,3,0,0,1,52.29,45.88Z"/><path d="M35,24a1,1,0,0,0-1-1H30a1,1,0,0,0-1,1v8a1,1,0,0,0,2,0V25h3A1,1,0,0,0,35,24Z"/><path d="M38,23a1,1,0,0,0-1,1v7H34a1,1,0,0,0,0,2h4a1,1,0,0,0,1-1V24A1,1,0,0,0,38,23Z"/><path d="M59.665,24.31A4.476,4.476,0,0,0,52.051,27H50v-.612l8.7-9.544A1,1,0,0,0,57.221,15.5l-8.96,9.83A1,1,0,0,0,48,26v2a1,1,0,0,0,1,1h3.267A4.516,4.516,0,0,0,56.5,32a4.414,4.414,0,0,0,1.887-.421A4.5,4.5,0,0,0,61,27.5,4.451,4.451,0,0,0,59.665,24.31ZM57.54,29.768A2.4,2.4,0,0,1,56.5,30a2.519,2.519,0,0,1-2.478-2.186A1.708,1.708,0,0,1,54,27.5,2.5,2.5,0,0,1,56.5,25a2.462,2.462,0,0,1,1.753.727l.005,0A2.47,2.47,0,0,1,59,27.5,2.5,2.5,0,0,1,57.54,29.768Z"/><path d="M39.293,5.707a1,1,0,0,0,1.414-1.414L39,2.586V1.05a1,1,0,0,0-2,.01V3a1,1,0,0,0,.293.707Z"/><path d="M30,5a1,1,0,0,0,1-1V1.3a1,1,0,0,0-2,.01V4A1,1,0,0,0,30,5Z"/><path d="M53.293,15.707a1,1,0,0,0,1.414,0l2.57-2.57a1,1,0,1,0-1.414-1.414l-2.57,2.57A1,1,0,0,0,53.293,15.707Z"/><path d="M56.48,34H53.5l-2.7-3.6a1,1,0,0,0-1.6,1.2l3,4a1,1,0,0,0,.8.4h3.48a1,1,0,0,0,0-2Z"/><path d="M46.845,50.694a1,1,0,0,0-1.221.709,17.225,17.225,0,0,0-.176,7.5,1,1,0,0,0,.971.763,1.024,1.024,0,0,0,.238-.028,1,1,0,0,0,.735-1.209,15.392,15.392,0,0,1,.165-6.517A1,1,0,0,0,46.845,50.694Z"/></g></svg>